<mxfile host="app.diagrams.net" modified="2020-05-17T10:57:40.935Z" agent="5.0 (Windows NT 10.0; Win64; x64) AppleWebKit/537.36 (KHTML, like Gecko) Chrome/81.0.4044.138 Safari/537.36" etag="hDaIdfLrs8pkcPzIIvMS" version="13.1.0" type="github">
  <diagram name="Page-1" id="13e1069c-82ec-6db2-03f1-153e76fe0fe0">
    <mxGraphModel dx="920" dy="507" grid="1" gridSize="10" guides="1" tooltips="1" connect="1" arrows="1" fold="1" page="1" pageScale="1" pageWidth="827" pageHeight="1169" background="#ffffff" math="0" shadow="0">
      <root>
        <mxCell id="0" />
        <mxCell id="1" parent="0" />
        <mxCell id="L6Z3Xez7cxgLfyGLih7J-20" value="if Accept App" style="shape=umlFrame;whiteSpace=wrap;html=1;rounded=0;shadow=0;glass=0;comic=0;width=100;height=15;" parent="1" vertex="1">
          <mxGeometry x="70" y="300" width="680" height="60" as="geometry" />
        </mxCell>
        <mxCell id="L6Z3Xez7cxgLfyGLih7J-34" value="if Reject App" style="shape=umlFrame;whiteSpace=wrap;html=1;rounded=0;shadow=0;glass=0;comic=0;width=100;height=15;" parent="1" vertex="1">
          <mxGeometry x="70" y="360" width="680" height="180" as="geometry" />
        </mxCell>
        <mxCell id="L6Z3Xez7cxgLfyGLih7J-42" value="If Confrim App" style="shape=umlFrame;whiteSpace=wrap;html=1;rounded=0;shadow=0;glass=0;comic=0;width=90;height=20;" parent="1" vertex="1">
          <mxGeometry x="80" y="415" width="470" height="50" as="geometry" />
        </mxCell>
        <mxCell id="7baba1c4bc27f4b0-2" value=":Appointment" style="shape=umlLifeline;perimeter=lifelinePerimeter;whiteSpace=wrap;html=1;container=1;collapsible=0;recursiveResize=0;outlineConnect=0;rounded=0;shadow=0;comic=0;labelBackgroundColor=none;strokeWidth=1;fontFamily=Verdana;fontSize=12;align=center;" parent="1" vertex="1">
          <mxGeometry x="280" y="80" width="100" height="540" as="geometry" />
        </mxCell>
        <mxCell id="0YD5rK6Hw0J9yhyDsVtD-12" value="" style="html=1;points=[];perimeter=orthogonalPerimeter;rounded=0;shadow=0;comic=0;labelBackgroundColor=none;strokeWidth=1;fontFamily=Verdana;fontSize=12;align=center;" parent="7baba1c4bc27f4b0-2" vertex="1">
          <mxGeometry x="45" y="150" width="10" height="370" as="geometry" />
        </mxCell>
        <mxCell id="7baba1c4bc27f4b0-5" value=":Database" style="shape=umlLifeline;perimeter=lifelinePerimeter;whiteSpace=wrap;html=1;container=1;collapsible=0;recursiveResize=0;outlineConnect=0;rounded=0;shadow=0;comic=0;labelBackgroundColor=none;strokeWidth=1;fontFamily=Verdana;fontSize=12;align=center;" parent="1" vertex="1">
          <mxGeometry x="470.5" y="80" width="119" height="540" as="geometry" />
        </mxCell>
        <mxCell id="7baba1c4bc27f4b0-19" value="" style="html=1;points=[];perimeter=orthogonalPerimeter;rounded=0;shadow=0;comic=0;labelBackgroundColor=none;strokeWidth=1;fontFamily=Verdana;fontSize=12;align=center;" parent="7baba1c4bc27f4b0-5" vertex="1">
          <mxGeometry x="54.5" y="90" width="10" height="430" as="geometry" />
        </mxCell>
        <mxCell id="7baba1c4bc27f4b0-11" value="requestFreeAppQuerry()" style="html=1;verticalAlign=bottom;endArrow=block;labelBackgroundColor=none;fontFamily=Verdana;fontSize=12;edgeStyle=elbowEdgeStyle;elbow=vertical;exitX=1.06;exitY=0.004;exitDx=0;exitDy=0;exitPerimeter=0;" parent="1" target="7baba1c4bc27f4b0-19" edge="1" source="L6Z3Xez7cxgLfyGLih7J-31">
          <mxGeometry x="0.2703" relative="1" as="geometry">
            <mxPoint x="155" y="190" as="sourcePoint" />
            <Array as="points">
              <mxPoint x="250" y="170" />
              <mxPoint x="530" y="190" />
              <mxPoint x="550" y="190" />
            </Array>
            <mxPoint as="offset" />
          </mxGeometry>
        </mxCell>
        <mxCell id="7baba1c4bc27f4b0-40" value="Dashboard Interface" style="shape=note;whiteSpace=wrap;html=1;size=14;verticalAlign=top;align=left;spacingTop=-6;rounded=0;shadow=0;comic=0;labelBackgroundColor=none;strokeWidth=1;fontFamily=Verdana;fontSize=12" parent="1" vertex="1">
          <mxGeometry x="130.5" y="30" width="100" height="35" as="geometry" />
        </mxCell>
        <mxCell id="7baba1c4bc27f4b0-44" value="System&#39;s Database" style="shape=note;whiteSpace=wrap;html=1;size=14;verticalAlign=top;align=left;spacingTop=-6;rounded=0;shadow=0;comic=0;labelBackgroundColor=none;strokeWidth=1;fontFamily=Verdana;fontSize=12" parent="1" vertex="1">
          <mxGeometry x="480" y="30" width="100" height="35" as="geometry" />
        </mxCell>
        <mxCell id="0YD5rK6Hw0J9yhyDsVtD-10" value="" style="endArrow=block;startArrow=none;endFill=1;startFill=0;html=1;exitX=1.075;exitY=0.006;exitDx=0;exitDy=0;exitPerimeter=0;" parent="1" edge="1" source="a8lA5I2cXUjlvyu3XpiI-5">
          <mxGeometry width="160" relative="1" as="geometry">
            <mxPoint x="57.5" y="170" as="sourcePoint" />
            <mxPoint x="172.5" y="170" as="targetPoint" />
            <Array as="points">
              <mxPoint x="137.5" y="170" />
            </Array>
          </mxGeometry>
        </mxCell>
        <mxCell id="0YD5rK6Hw0J9yhyDsVtD-11" value="Login" style="edgeLabel;html=1;align=center;verticalAlign=middle;resizable=0;points=[];" parent="0YD5rK6Hw0J9yhyDsVtD-10" vertex="1" connectable="0">
          <mxGeometry x="-0.2904" relative="1" as="geometry">
            <mxPoint x="9" y="-10" as="offset" />
          </mxGeometry>
        </mxCell>
        <mxCell id="0YD5rK6Hw0J9yhyDsVtD-16" style="edgeStyle=orthogonalEdgeStyle;rounded=0;orthogonalLoop=1;jettySize=auto;html=1;startArrow=block;startFill=1;endArrow=none;endFill=0;" parent="1" source="0YD5rK6Hw0J9yhyDsVtD-12" edge="1">
          <mxGeometry relative="1" as="geometry">
            <mxPoint x="155" y="260" as="targetPoint" />
            <Array as="points">
              <mxPoint x="155" y="260" />
            </Array>
          </mxGeometry>
        </mxCell>
        <mxCell id="0YD5rK6Hw0J9yhyDsVtD-17" value="createAppointment()" style="edgeLabel;html=1;align=center;verticalAlign=middle;resizable=0;points=[];" parent="0YD5rK6Hw0J9yhyDsVtD-16" vertex="1" connectable="0">
          <mxGeometry x="0.9324" y="87" relative="1" as="geometry">
            <mxPoint x="60.999999999999986" y="-97.00000000000001" as="offset" />
          </mxGeometry>
        </mxCell>
        <mxCell id="0YD5rK6Hw0J9yhyDsVtD-18" style="edgeStyle=orthogonalEdgeStyle;rounded=0;orthogonalLoop=1;jettySize=auto;html=1;startArrow=none;startFill=0;endArrow=block;endFill=1;" parent="1" source="0YD5rK6Hw0J9yhyDsVtD-12" target="7baba1c4bc27f4b0-19" edge="1">
          <mxGeometry relative="1" as="geometry">
            <Array as="points">
              <mxPoint x="340" y="260" />
              <mxPoint x="340" y="260" />
            </Array>
          </mxGeometry>
        </mxCell>
        <mxCell id="0YD5rK6Hw0J9yhyDsVtD-19" value="sendNewAppInfo()" style="edgeLabel;html=1;align=center;verticalAlign=middle;resizable=0;points=[];" parent="0YD5rK6Hw0J9yhyDsVtD-18" vertex="1" connectable="0">
          <mxGeometry x="0.2791" y="38" relative="1" as="geometry">
            <mxPoint x="-42" y="28" as="offset" />
          </mxGeometry>
        </mxCell>
        <mxCell id="L6Z3Xez7cxgLfyGLih7J-12" value=":Other_users" style="shape=umlLifeline;perimeter=lifelinePerimeter;whiteSpace=wrap;html=1;container=1;collapsible=0;recursiveResize=0;outlineConnect=0;" parent="1" vertex="1">
          <mxGeometry x="670" y="80" width="100" height="530" as="geometry" />
        </mxCell>
        <mxCell id="L6Z3Xez7cxgLfyGLih7J-30" value="" style="html=1;points=[];perimeter=orthogonalPerimeter;rounded=0;shadow=0;glass=0;comic=0;" parent="L6Z3Xez7cxgLfyGLih7J-12" vertex="1">
          <mxGeometry x="45" y="190" width="10" height="240" as="geometry" />
        </mxCell>
        <mxCell id="L6Z3Xez7cxgLfyGLih7J-15" value="Admin or Secretary" style="shape=note;whiteSpace=wrap;html=1;size=14;verticalAlign=top;align=left;spacingTop=-6;rounded=0;shadow=0;comic=0;labelBackgroundColor=none;strokeWidth=1;fontFamily=Verdana;fontSize=12" parent="1" vertex="1">
          <mxGeometry x="670" y="30" width="100" height="35" as="geometry" />
        </mxCell>
        <mxCell id="L6Z3Xez7cxgLfyGLih7J-16" value="Appointment in the Calendar" style="shape=note;whiteSpace=wrap;html=1;size=14;verticalAlign=top;align=left;spacingTop=-6;rounded=0;shadow=0;comic=0;labelBackgroundColor=none;strokeWidth=1;fontFamily=Verdana;fontSize=12" parent="1" vertex="1">
          <mxGeometry x="280" y="30" width="100" height="35" as="geometry" />
        </mxCell>
        <mxCell id="L6Z3Xez7cxgLfyGLih7J-23" value="sendResponse()" style="html=1;verticalAlign=bottom;endArrow=open;dashed=1;endSize=8;" parent="1" source="7baba1c4bc27f4b0-19" edge="1">
          <mxGeometry x="0.0976" relative="1" as="geometry">
            <mxPoint x="296" y="340" as="targetPoint" />
            <mxPoint x="520" y="348" as="sourcePoint" />
            <Array as="points">
              <mxPoint x="450" y="340" />
            </Array>
            <mxPoint as="offset" />
          </mxGeometry>
        </mxCell>
        <mxCell id="L6Z3Xez7cxgLfyGLih7J-26" value="showConfirm.message()" style="html=1;verticalAlign=bottom;endArrow=open;dashed=1;endSize=8;exitX=0.02;exitY=0.327;exitDx=0;exitDy=0;exitPerimeter=0;" parent="1" source="0YD5rK6Hw0J9yhyDsVtD-12" target="L6Z3Xez7cxgLfyGLih7J-31" edge="1">
          <mxGeometry relative="1" as="geometry">
            <mxPoint x="155.60000000000002" y="360.4" as="targetPoint" />
            <mxPoint x="285" y="359.25" as="sourcePoint" />
          </mxGeometry>
        </mxCell>
        <mxCell id="L6Z3Xez7cxgLfyGLih7J-36" value="sendResponse()" style="html=1;verticalAlign=bottom;endArrow=open;dashed=1;endSize=8;exitX=-0.06;exitY=0.526;exitDx=0;exitDy=0;exitPerimeter=0;entryX=0.98;entryY=0.435;entryDx=0;entryDy=0;entryPerimeter=0;" parent="1" source="7baba1c4bc27f4b0-19" target="0YD5rK6Hw0J9yhyDsVtD-12" edge="1">
          <mxGeometry relative="1" as="geometry">
            <mxPoint x="520" y="400" as="sourcePoint" />
            <mxPoint x="310" y="400" as="targetPoint" />
          </mxGeometry>
        </mxCell>
        <mxCell id="L6Z3Xez7cxgLfyGLih7J-38" value="acceptApp()" style="html=1;verticalAlign=bottom;endArrow=open;dashed=1;endSize=8;" parent="1" target="7baba1c4bc27f4b0-19" edge="1">
          <mxGeometry relative="1" as="geometry">
            <mxPoint x="710" y="320" as="sourcePoint" />
            <mxPoint x="630" y="320" as="targetPoint" />
          </mxGeometry>
        </mxCell>
        <mxCell id="L6Z3Xez7cxgLfyGLih7J-39" value="rescheduleApp()" style="html=1;verticalAlign=bottom;endArrow=open;dashed=1;endSize=8;" parent="1" edge="1">
          <mxGeometry relative="1" as="geometry">
            <mxPoint x="715" y="380" as="sourcePoint" />
            <mxPoint x="540" y="380" as="targetPoint" />
          </mxGeometry>
        </mxCell>
        <mxCell id="L6Z3Xez7cxgLfyGLih7J-40" value="showReschedule.message()" style="html=1;verticalAlign=bottom;endArrow=open;dashed=1;endSize=8;exitX=0.1;exitY=0.456;exitDx=0;exitDy=0;exitPerimeter=0;" parent="1" source="0YD5rK6Hw0J9yhyDsVtD-12" edge="1">
          <mxGeometry relative="1" as="geometry">
            <mxPoint x="155" y="400" as="targetPoint" />
            <mxPoint x="280" y="400" as="sourcePoint" />
            <Array as="points">
              <mxPoint x="230" y="400" />
            </Array>
          </mxGeometry>
        </mxCell>
        <mxCell id="L6Z3Xez7cxgLfyGLih7J-46" value="[if Reschedule]" style="text;html=1;strokeColor=none;fillColor=none;align=center;verticalAlign=middle;whiteSpace=wrap;rounded=0;shadow=0;glass=0;comic=0;" parent="1" vertex="1">
          <mxGeometry x="70" y="380" width="90" height="20" as="geometry" />
        </mxCell>
        <mxCell id="L6Z3Xez7cxgLfyGLih7J-47" value="" style="endArrow=none;dashed=1;html=1;exitX=-0.002;exitY=0.669;exitDx=0;exitDy=0;exitPerimeter=0;entryX=1;entryY=0.664;entryDx=0;entryDy=0;entryPerimeter=0;" parent="1" source="L6Z3Xez7cxgLfyGLih7J-34" target="L6Z3Xez7cxgLfyGLih7J-34" edge="1">
          <mxGeometry width="50" height="50" relative="1" as="geometry">
            <mxPoint x="100" y="510" as="sourcePoint" />
            <mxPoint x="150" y="460" as="targetPoint" />
          </mxGeometry>
        </mxCell>
        <mxCell id="L6Z3Xez7cxgLfyGLih7J-48" value="sendConfirmation()" style="html=1;verticalAlign=bottom;endArrow=open;dashed=1;endSize=8;exitX=0.5;exitY=0.659;exitDx=0;exitDy=0;exitPerimeter=0;entryX=0.98;entryY=0.588;entryDx=0;entryDy=0;entryPerimeter=0;" parent="1" source="7baba1c4bc27f4b0-19" target="0YD5rK6Hw0J9yhyDsVtD-12" edge="1">
          <mxGeometry x="0.0976" relative="1" as="geometry">
            <mxPoint x="300" y="450" as="targetPoint" />
            <mxPoint x="520" y="450" as="sourcePoint" />
            <Array as="points">
              <mxPoint x="454" y="450" />
            </Array>
            <mxPoint as="offset" />
          </mxGeometry>
        </mxCell>
        <mxCell id="L6Z3Xez7cxgLfyGLih7J-49" value="[else]" style="text;html=1;strokeColor=none;fillColor=none;align=center;verticalAlign=middle;whiteSpace=wrap;rounded=0;shadow=0;glass=0;comic=0;" parent="1" vertex="1">
          <mxGeometry x="70" y="480" width="40" height="20" as="geometry" />
        </mxCell>
        <mxCell id="L6Z3Xez7cxgLfyGLih7J-50" value="rejectApp.deleteApp()" style="html=1;verticalAlign=bottom;endArrow=open;dashed=1;endSize=8;entryX=0.5;entryY=0.77;entryDx=0;entryDy=0;entryPerimeter=0;" parent="1" target="7baba1c4bc27f4b0-19" edge="1">
          <mxGeometry relative="1" as="geometry">
            <mxPoint x="715" y="499" as="sourcePoint" />
            <mxPoint x="540" y="499" as="targetPoint" />
          </mxGeometry>
        </mxCell>
        <mxCell id="L6Z3Xez7cxgLfyGLih7J-51" value="sendResponse()" style="html=1;verticalAlign=bottom;endArrow=open;dashed=1;endSize=8;exitX=0.1;exitY=0.795;exitDx=0;exitDy=0;exitPerimeter=0;entryX=0.5;entryY=0.757;entryDx=0;entryDy=0;entryPerimeter=0;" parent="1" source="7baba1c4bc27f4b0-19" target="0YD5rK6Hw0J9yhyDsVtD-12" edge="1">
          <mxGeometry relative="1" as="geometry">
            <mxPoint x="520" y="510" as="sourcePoint" />
            <mxPoint x="300" y="510" as="targetPoint" />
            <Array as="points">
              <mxPoint x="410.5" y="510" />
            </Array>
          </mxGeometry>
        </mxCell>
        <mxCell id="L6Z3Xez7cxgLfyGLih7J-52" value="showRejection.message()" style="html=1;verticalAlign=bottom;endArrow=open;dashed=1;endSize=8;exitX=0.1;exitY=0.783;exitDx=0;exitDy=0;exitPerimeter=0;entryX=0.5;entryY=0.814;entryDx=0;entryDy=0;entryPerimeter=0;" parent="1" source="0YD5rK6Hw0J9yhyDsVtD-12" target="L6Z3Xez7cxgLfyGLih7J-31" edge="1">
          <mxGeometry relative="1" as="geometry">
            <mxPoint x="160" y="520" as="targetPoint" />
            <mxPoint x="280" y="520" as="sourcePoint" />
            <Array as="points">
              <mxPoint x="230" y="520" />
            </Array>
          </mxGeometry>
        </mxCell>
        <mxCell id="L6Z3Xez7cxgLfyGLih7J-53" style="edgeStyle=orthogonalEdgeStyle;rounded=0;orthogonalLoop=1;jettySize=auto;html=1;startArrow=block;startFill=1;endArrow=none;endFill=0;" parent="1" edge="1">
          <mxGeometry relative="1" as="geometry">
            <mxPoint x="155" y="570" as="targetPoint" />
            <Array as="points">
              <mxPoint x="155" y="570" />
            </Array>
            <mxPoint x="285" y="570" as="sourcePoint" />
          </mxGeometry>
        </mxCell>
        <mxCell id="L6Z3Xez7cxgLfyGLih7J-54" value="deleteAppointment()" style="edgeLabel;html=1;align=center;verticalAlign=middle;resizable=0;points=[];" parent="L6Z3Xez7cxgLfyGLih7J-53" vertex="1" connectable="0">
          <mxGeometry x="0.9324" y="87" relative="1" as="geometry">
            <mxPoint x="60.999999999999986" y="-97.00000000000001" as="offset" />
          </mxGeometry>
        </mxCell>
        <mxCell id="L6Z3Xez7cxgLfyGLih7J-57" value="confirmDeletionApp()" style="html=1;verticalAlign=bottom;endArrow=block;entryX=0.18;entryY=0.93;entryDx=0;entryDy=0;entryPerimeter=0;" parent="1" target="7baba1c4bc27f4b0-19" edge="1">
          <mxGeometry width="80" relative="1" as="geometry">
            <mxPoint x="300" y="570" as="sourcePoint" />
            <mxPoint x="520" y="570" as="targetPoint" />
          </mxGeometry>
        </mxCell>
        <mxCell id="L6Z3Xez7cxgLfyGLih7J-58" value="sendConfirmation()" style="html=1;verticalAlign=bottom;endArrow=open;dashed=1;endSize=8;exitX=0.5;exitY=0.977;exitDx=0;exitDy=0;exitPerimeter=0;" parent="1" source="7baba1c4bc27f4b0-19" edge="1">
          <mxGeometry x="0.0976" relative="1" as="geometry">
            <mxPoint x="300" y="590" as="targetPoint" />
            <mxPoint x="520" y="590" as="sourcePoint" />
            <Array as="points">
              <mxPoint x="454" y="590" />
            </Array>
            <mxPoint as="offset" />
          </mxGeometry>
        </mxCell>
        <mxCell id="L6Z3Xez7cxgLfyGLih7J-59" value="showDeletion.message()" style="html=1;verticalAlign=bottom;endArrow=open;dashed=1;endSize=8;exitX=0.5;exitY=0.973;exitDx=0;exitDy=0;exitPerimeter=0;" parent="1" source="0YD5rK6Hw0J9yhyDsVtD-12" edge="1">
          <mxGeometry x="0.0539" relative="1" as="geometry">
            <mxPoint x="155" y="590" as="targetPoint" />
            <mxPoint x="280" y="590" as="sourcePoint" />
            <Array as="points">
              <mxPoint x="230" y="590" />
            </Array>
            <mxPoint as="offset" />
          </mxGeometry>
        </mxCell>
        <mxCell id="L6Z3Xez7cxgLfyGLih7J-37" value="sendResponse()" style="html=1;verticalAlign=bottom;endArrow=block;entryX=0.38;entryY=-0.003;entryDx=0;entryDy=0;entryPerimeter=0;" parent="1" source="7baba1c4bc27f4b0-19" target="L6Z3Xez7cxgLfyGLih7J-30" edge="1">
          <mxGeometry width="80" relative="1" as="geometry">
            <mxPoint x="535" y="274.5" as="sourcePoint" />
            <mxPoint x="615" y="274.5" as="targetPoint" />
          </mxGeometry>
        </mxCell>
        <mxCell id="L6Z3Xez7cxgLfyGLih7J-44" value="confirmApp()" style="html=1;verticalAlign=bottom;endArrow=block;exitX=0.9;exitY=0.536;exitDx=0;exitDy=0;exitPerimeter=0;" parent="1" source="0YD5rK6Hw0J9yhyDsVtD-12" edge="1">
          <mxGeometry width="80" relative="1" as="geometry">
            <mxPoint x="300" y="430" as="sourcePoint" />
            <mxPoint x="525" y="428" as="targetPoint" />
          </mxGeometry>
        </mxCell>
        <mxCell id="7baba1c4bc27f4b0-8" value=":Calendar" style="shape=umlLifeline;perimeter=lifelinePerimeter;whiteSpace=wrap;html=1;container=1;collapsible=0;recursiveResize=0;outlineConnect=0;rounded=0;shadow=0;comic=0;labelBackgroundColor=none;strokeWidth=1;fontFamily=Verdana;fontSize=12;align=center;glass=0;" parent="1" vertex="1">
          <mxGeometry x="130" y="80" width="100.5" height="540" as="geometry" />
        </mxCell>
        <mxCell id="L6Z3Xez7cxgLfyGLih7J-31" value="" style="html=1;points=[];perimeter=orthogonalPerimeter;rounded=0;shadow=0;glass=0;comic=0;" parent="7baba1c4bc27f4b0-8" vertex="1">
          <mxGeometry x="45.25" y="90" width="10" height="430" as="geometry" />
        </mxCell>
        <mxCell id="L6Z3Xez7cxgLfyGLih7J-32" value="returnRequest()" style="html=1;verticalAlign=bottom;endArrow=open;dashed=1;endSize=8;labelBackgroundColor=none;fontFamily=Verdana;fontSize=12;edgeStyle=elbowEdgeStyle;elbow=vertical;" parent="7baba1c4bc27f4b0-8" source="7baba1c4bc27f4b0-8" target="L6Z3Xez7cxgLfyGLih7J-31" edge="1">
          <mxGeometry x="-0.2336" relative="1" as="geometry">
            <mxPoint x="26" y="130" as="targetPoint" />
            <Array as="points">
              <mxPoint x="310" y="130" />
            </Array>
            <mxPoint as="offset" />
            <mxPoint x="444.5" y="130" as="sourcePoint" />
          </mxGeometry>
        </mxCell>
        <mxCell id="a8lA5I2cXUjlvyu3XpiI-1" value="returnRequest()" style="html=1;verticalAlign=bottom;endArrow=open;dashed=1;endSize=8;labelBackgroundColor=none;fontFamily=Verdana;fontSize=12;edgeStyle=elbowEdgeStyle;elbow=vertical;" edge="1" parent="1" source="7baba1c4bc27f4b0-19" target="7baba1c4bc27f4b0-8">
          <mxGeometry x="-0.2336" relative="1" as="geometry">
            <mxPoint x="155" y="199.9999999999999" as="targetPoint" />
            <Array as="points">
              <mxPoint x="250" y="200" />
            </Array>
            <mxPoint as="offset" />
            <mxPoint x="525" y="199.9999999999999" as="sourcePoint" />
          </mxGeometry>
        </mxCell>
        <mxCell id="a8lA5I2cXUjlvyu3XpiI-4" value=":Client" style="shape=umlLifeline;perimeter=lifelinePerimeter;whiteSpace=wrap;html=1;container=1;collapsible=0;recursiveResize=0;outlineConnect=0;rounded=0;shadow=0;comic=0;labelBackgroundColor=none;strokeWidth=1;fontFamily=Verdana;fontSize=12;align=center;glass=0;" vertex="1" parent="1">
          <mxGeometry y="80" width="100.5" height="540" as="geometry" />
        </mxCell>
        <mxCell id="a8lA5I2cXUjlvyu3XpiI-5" value="" style="html=1;points=[];perimeter=orthogonalPerimeter;rounded=0;shadow=0;glass=0;comic=0;" vertex="1" parent="a8lA5I2cXUjlvyu3XpiI-4">
          <mxGeometry x="45.25" y="90" width="10" height="430" as="geometry" />
        </mxCell>
        <mxCell id="a8lA5I2cXUjlvyu3XpiI-6" value="returnRequest()" style="html=1;verticalAlign=bottom;endArrow=open;dashed=1;endSize=8;labelBackgroundColor=none;fontFamily=Verdana;fontSize=12;edgeStyle=elbowEdgeStyle;elbow=vertical;" edge="1" parent="a8lA5I2cXUjlvyu3XpiI-4" source="a8lA5I2cXUjlvyu3XpiI-4" target="a8lA5I2cXUjlvyu3XpiI-5">
          <mxGeometry x="-0.2336" relative="1" as="geometry">
            <mxPoint x="26" y="130" as="targetPoint" />
            <Array as="points">
              <mxPoint x="310" y="130" />
            </Array>
            <mxPoint as="offset" />
            <mxPoint x="444.5" y="130" as="sourcePoint" />
          </mxGeometry>
        </mxCell>
      </root>
    </mxGraphModel>
  </diagram>
</mxfile>
